<?xml version="1.0" encoding="utf-8"?>
<svg viewBox="42.3186 368.9318 664 100" xmlns="http://www.w3.org/2000/svg">
  <g transform="matrix(1, 0, 0, 1, 42.31862831115724, 368.9318161010742)" style="fill:#000000;">
    <rect x="0" y="0" width="4" height="100" style="fill: rgb(255, 255, 255);"/>
    <rect x="6" y="0" width="2" height="100" style="fill: rgb(255, 255, 255);"/>
    <rect x="12" y="0" width="2" height="100" style="fill: rgb(255, 255, 255);"/>
    <rect x="22" y="0" width="2" height="100" style="fill: rgb(255, 255, 255);"/>
    <rect x="30" y="0" width="8" height="100" style="fill: rgb(255, 255, 255);"/>
    <rect x="40" y="0" width="2" height="100" style="fill: rgb(255, 255, 255);"/>
    <rect x="44" y="0" width="2" height="100" style="fill: rgb(255, 255, 255);"/>
    <rect x="50" y="0" width="4" height="100" style="fill: rgb(255, 255, 255);"/>
    <rect x="62" y="0" width="2" height="100" style="fill: rgb(255, 255, 255);"/>
    <rect x="66" y="0" width="4" height="100" style="fill: rgb(255, 255, 255);"/>
    <rect x="72" y="0" width="4" height="100" style="fill: rgb(255, 255, 255);"/>
    <rect x="80" y="0" width="4" height="100" style="fill: rgb(255, 255, 255);"/>
    <rect x="88" y="0" width="2" height="100" style="fill: rgb(255, 255, 255);"/>
    <rect x="94" y="0" width="4" height="100" style="fill: rgb(255, 255, 255);"/>
    <rect x="106" y="0" width="2" height="100" style="fill: rgb(255, 255, 255);"/>
    <rect x="110" y="0" width="2" height="100" style="fill: rgb(255, 255, 255);"/>
    <rect x="120" y="0" width="4" height="100" style="fill: rgb(255, 255, 255);"/>
    <rect x="126" y="0" width="2" height="100" style="fill: rgb(255, 255, 255);"/>
    <rect x="132" y="0" width="4" height="100" style="fill: rgb(255, 255, 255);"/>
    <rect x="138" y="0" width="4" height="100" style="fill: rgb(255, 255, 255);"/>
    <rect x="146" y="0" width="4" height="100" style="fill: rgb(255, 255, 255);"/>
    <rect x="154" y="0" width="2" height="100" style="fill: rgb(255, 255, 255);"/>
    <rect x="160" y="0" width="8" height="100" style="fill: rgb(255, 255, 255);"/>
    <rect x="172" y="0" width="2" height="100" style="fill: rgb(255, 255, 255);"/>
    <rect x="176" y="0" width="4" height="100" style="fill: rgb(255, 255, 255);"/>
    <rect x="182" y="0" width="4" height="100" style="fill: rgb(255, 255, 255);"/>
    <rect x="190" y="0" width="4" height="100" style="fill: rgb(255, 255, 255);"/>
    <rect x="198" y="0" width="2" height="100" style="fill: rgb(255, 255, 255);"/>
    <rect x="204" y="0" width="2" height="100" style="fill: rgb(255, 255, 255);"/>
    <rect x="208" y="0" width="4" height="100" style="fill: rgb(255, 255, 255);"/>
    <rect x="220" y="0" width="2" height="100" style="fill: rgb(255, 255, 255);"/>
    <rect x="230" y="0" width="2" height="100" style="fill: rgb(255, 255, 255);"/>
    <rect x="234" y="0" width="4" height="100" style="fill: rgb(255, 255, 255);"/>
    <rect x="242" y="0" width="2" height="100" style="fill: rgb(255, 255, 255);"/>
    <rect x="248" y="0" width="8" height="100" style="fill: rgb(255, 255, 255);"/>
    <rect x="258" y="0" width="2" height="100" style="fill: rgb(255, 255, 255);"/>
    <rect x="264" y="0" width="2" height="100" style="fill: rgb(255, 255, 255);"/>
    <rect x="270" y="0" width="8" height="100" style="fill: rgb(255, 255, 255);"/>
    <rect x="282" y="0" width="2" height="100" style="fill: rgb(255, 255, 255);"/>
    <rect x="286" y="0" width="2" height="100" style="fill: rgb(255, 255, 255);"/>
    <rect x="292" y="0" width="2" height="100" style="fill: rgb(255, 255, 255);"/>
    <rect x="296" y="0" width="4" height="100" style="fill: rgb(255, 255, 255);"/>
    <rect x="308" y="0" width="4" height="100" style="fill: rgb(255, 255, 255);"/>
    <rect x="316" y="0" width="2" height="100" style="fill: rgb(255, 255, 255);"/>
    <rect x="320" y="0" width="2" height="100" style="fill: rgb(255, 255, 255);"/>
    <rect x="330" y="0" width="4" height="100" style="fill: rgb(255, 255, 255);"/>
    <rect x="338" y="0" width="2" height="100" style="fill: rgb(255, 255, 255);"/>
    <rect x="342" y="0" width="2" height="100" style="fill: rgb(255, 255, 255);"/>
    <rect x="352" y="0" width="4" height="100" style="fill: rgb(255, 255, 255);"/>
    <rect x="358" y="0" width="4" height="100" style="fill: rgb(255, 255, 255);"/>
    <rect x="364" y="0" width="8" height="100" style="fill: rgb(255, 255, 255);"/>
    <rect x="374" y="0" width="4" height="100" style="fill: rgb(255, 255, 255);"/>
    <rect x="380" y="0" width="4" height="100" style="fill: rgb(255, 255, 255);"/>
    <rect x="388" y="0" width="4" height="100" style="fill: rgb(255, 255, 255);"/>
    <rect x="396" y="0" width="2" height="100" style="fill: rgb(255, 255, 255);"/>
    <rect x="400" y="0" width="8" height="100" style="fill: rgb(255, 255, 255);"/>
    <rect x="412" y="0" width="2" height="100" style="fill: rgb(255, 255, 255);"/>
    <rect x="418" y="0" width="2" height="100" style="fill: rgb(255, 255, 255);"/>
    <rect x="428" y="0" width="2" height="100" style="fill: rgb(255, 255, 255);"/>
    <rect x="432" y="0" width="4" height="100" style="fill: rgb(255, 255, 255);"/>
    <rect x="440" y="0" width="2" height="100" style="fill: rgb(255, 255, 255);"/>
    <rect x="446" y="0" width="2" height="100" style="fill: rgb(255, 255, 255);"/>
    <rect x="450" y="0" width="4" height="100" style="fill: rgb(255, 255, 255);"/>
    <rect x="462" y="0" width="4" height="100" style="fill: rgb(255, 255, 255);"/>
    <rect x="474" y="0" width="2" height="100" style="fill: rgb(255, 255, 255);"/>
    <rect x="478" y="0" width="2" height="100" style="fill: rgb(255, 255, 255);"/>
    <rect x="484" y="0" width="4" height="100" style="fill: rgb(255, 255, 255);"/>
    <rect x="496" y="0" width="2" height="100" style="fill: rgb(255, 255, 255);"/>
    <rect x="500" y="0" width="2" height="100" style="fill: rgb(255, 255, 255);"/>
    <rect x="506" y="0" width="2" height="100" style="fill: rgb(255, 255, 255);"/>
    <rect x="510" y="0" width="4" height="100" style="fill: rgb(255, 255, 255);"/>
    <rect x="518" y="0" width="2" height="100" style="fill: rgb(255, 255, 255);"/>
    <rect x="528" y="0" width="2" height="100" style="fill: rgb(255, 255, 255);"/>
    <rect x="538" y="0" width="2" height="100" style="fill: rgb(255, 255, 255);"/>
    <rect x="544" y="0" width="4" height="100" style="fill: rgb(255, 255, 255);"/>
    <rect x="550" y="0" width="4" height="100" style="fill: rgb(255, 255, 255);"/>
    <rect x="556" y="0" width="4" height="100" style="fill: rgb(255, 255, 255);"/>
    <rect x="564" y="0" width="4" height="100" style="fill: rgb(255, 255, 255);"/>
    <rect x="572" y="0" width="2" height="100" style="fill: rgb(255, 255, 255);"/>
    <rect x="582" y="0" width="4" height="100" style="fill: rgb(255, 255, 255);"/>
    <rect x="588" y="0" width="2" height="100" style="fill: rgb(255, 255, 255);"/>
    <rect x="594" y="0" width="2" height="100" style="fill: rgb(255, 255, 255);"/>
    <rect x="600" y="0" width="8" height="100" style="fill: rgb(255, 255, 255);"/>
    <rect x="610" y="0" width="2" height="100" style="fill: rgb(255, 255, 255);"/>
    <rect x="616" y="0" width="6" height="100" style="fill: rgb(255, 255, 255);"/>
    <rect x="624" y="0" width="2" height="100" style="fill: rgb(255, 255, 255);"/>
    <rect x="628" y="0" width="4" height="100" style="fill: rgb(255, 255, 255);"/>
    <rect x="638" y="0" width="4" height="100" style="fill: rgb(255, 255, 255);"/>
    <rect x="648" y="0" width="6" height="100" style="fill: rgb(255, 255, 255);"/>
    <rect x="656" y="0" width="2" height="100" style="fill: rgb(255, 255, 255);"/>
    <rect x="660" y="0" width="4" height="100" style="fill: rgb(255, 255, 255);"/>
  </g>
</svg>
